<svg width="551" height="1784" viewBox="0 0 551 1784" fill="none" xmlns="http://www.w3.org/2000/svg">
<path fill-rule="evenodd" clip-rule="evenodd" d="M389.052 1003C389.052 1003 498.617 1123.39 485.787 1293.5C474.28 1446.06 389.052 1576.5 246.942 1645.74C104.832 1714.98 -35.2841 1734 -35.2841 1734L-25.8102 1455C-25.8102 1374.45 -25.8102 1726.53 -25.8102 1645.74C-25.8102 1484.64 -25.8102 1323.54 -25.8102 1162.44C-25.8102 1003 -25.8102 1083.55 -25.8102 1003L389.052 1003Z" fill="#16262E"/>
<path fill-rule="evenodd" clip-rule="evenodd" d="M425.763 -1C425.763 -1 537.453 141.112 480.65 303.669C423.847 466.226 354.798 484.996 300.577 647.553C243.775 810.11 296.19 921.721 389.14 1003L-25.81 1003C-25.81 921.721 -25.81 810.11 -25.81 647.553C-25.81 484.996 -25.81 322.438 -25.81 159.881C-25.81 -1.00003 -25.81 80.2786 -25.81 -1L425.763 -1Z" fill="#16262E"/>
</svg>
